<svg width="51" height="50" viewBox="0 0 51 50" fill="none" xmlns="http://www.w3.org/2000/svg">
<path d="M34.9753 49.996C31.7226 49.996 28.6387 48.4107 26.7279 45.7554C26.2257 45.0579 25.8137 44.3049 25.5037 43.5082C25.1898 44.3049 24.7818 45.0579 24.2796 45.7554C22.3688 48.4107 19.2848 49.996 16.0322 49.996C13.8742 49.996 11.8065 49.3183 10.0526 48.0303C7.85147 46.4133 6.40367 44.0314 5.97992 41.3166C5.55617 38.6018 6.19964 35.883 7.80047 33.6596C8.30269 32.9621 8.88338 32.3359 9.53862 31.789C8.69112 31.7335 7.8554 31.571 7.04321 31.3055C1.69928 29.5537 -1.23557 23.7397 0.498657 18.3458C1.86799 14.0932 5.7602 11.2357 10.1821 11.2357C11.2493 11.2357 12.3087 11.4062 13.3327 11.743C14.1449 12.0086 14.9139 12.3732 15.632 12.8329C15.4201 12.0046 15.3142 11.1525 15.3142 10.2885C15.3142 4.61715 19.8812 0 25.4998 0C31.1184 0 35.6855 4.61319 35.6855 10.2885C35.6855 11.1525 35.5795 12.0046 35.3676 12.8329C36.0817 12.3732 36.8508 12.0086 37.6669 11.743C38.6909 11.4062 39.7503 11.2357 40.8175 11.2357C45.2433 11.2357 49.1316 14.0932 50.501 18.3458C52.2352 23.7397 49.3043 29.5577 43.9603 31.3094C43.1481 31.575 42.3124 31.7375 41.4649 31.793C42.1162 32.3399 42.6969 32.9661 43.2031 33.6636C44.8039 35.887 45.4474 38.6057 45.0236 41.3205C44.5999 44.0353 43.1521 46.4172 40.9509 48.0342C39.1971 49.3223 37.1333 50 34.9714 50L34.9753 49.996Z" fill="#FFC940"/>
</svg>
